<svg width="128" height="128" viewBox="0 0 128 128" version="1.1" xmlns="http://www.w3.org/2000/svg" xmlns:xlink="http://www.w3.org/1999/xlink" xmlns:figma="http://www.figma.com/figma/ns">
<title>asesoria-2</title>
<desc>Created using Figma</desc>
<g id="Canvas" transform="translate(280 137)" figma:type="canvas">
<g id="asesoria-2" style="mix-blend-mode:normal;" figma:type="frame">
<g id="Rectangle 2" style="mix-blend-mode:normal;" figma:type="rounded-rectangle">
<use xlink:href="#path0_fill" transform="translate(-280 -137)" fill="#FFFFFF" style="mix-blend-mode:normal;"/>
</g>
<g id="bubbles" style="mix-blend-mode:normal;" figma:type="frame">
<g id="Stroke 1" style="mix-blend-mode:normal;" figma:type="vector">
<use xlink:href="#path1_fill" transform="matrix(-1 0 0 1 -239.29 -82.6471)" fill="#FFFFFF" style="mix-blend-mode:normal;"/>
<use xlink:href="#path2_stroke" transform="matrix(-1 0 0 1 -239.29 -82.6471)" fill="#828282" style="mix-blend-mode:normal;"/>
</g>
<g id="Stroke 5" style="mix-blend-mode:normal;" figma:type="vector">
<use xlink:href="#path3_fill" transform="matrix(-1 0 0 1 -198 -101)" fill="#FFFFFF" style="mix-blend-mode:normal;"/>
<use xlink:href="#path4_stroke" transform="matrix(-1 0 0 1 -198 -101)" fill="#828282" style="mix-blend-mode:normal;"/>
</g>
</g>
</g>
</g>
<defs>
<path id="path0_fill" d="M 0 0L 128 0L 128 128L 0 128L 0 0Z"/>
<path id="path1_fill" fill-rule="evenodd" d="M 0 16.5938C 0 25.7694 8.6621 33.1877 19.3535 33.1877C 20.5004 33.1877 21.625 33.1029 22.7113 32.9333C 24.1386 35.1994 26.6107 36.7053 29.3823 36.7053C 29.7264 36.7053 30.0482 36.6848 30.3476 36.6409C 29.1211 35.1994 28.3979 33.3134 28.3788 31.2578C 34.5305 28.5034 38.7103 22.9741 38.7103 16.5938C 38.7103 7.41825 30.0482 0 19.3535 0C 8.6621 0 0 7.41825 0 16.5938Z"/>
<path id="path2_stroke" d="M 22.7113 32.9333L 23.9806 32.1339L 23.4548 31.299L 22.48 31.4512L 22.7113 32.9333ZM 30.3476 36.6409L 30.565 38.1251L 33.2458 37.7325L 31.4901 35.6689L 30.3476 36.6409ZM 28.3788 31.2578L 27.7658 29.8888L 26.8698 30.29L 26.8789 31.2718L 28.3788 31.2578ZM -1.5 16.5938C -1.5 26.8065 8.05902 34.6877 19.3535 34.6877L 19.3535 31.6877C 9.26519 31.6877 1.5 24.7323 1.5 16.5938L -1.5 16.5938ZM 19.3535 34.6877C 20.5569 34.6866 21.7972 34.5929 22.9427 34.4153L 22.48 31.4512C 21.4528 31.6128 20.444 31.6887 19.3535 31.6877L 19.3535 34.6877ZM 21.4421 33.7327C 23.1202 36.3972 26.0524 38.2053 29.3823 38.2053L 29.3823 35.2053C 27.169 35.2053 25.1569 34.0016 23.9806 32.1339L 21.4421 33.7327ZM 29.3823 38.2053C 29.774 38.2045 30.2046 38.1766 30.565 38.1251L 30.1303 35.1568C 29.8917 35.193 29.6788 35.206 29.3823 35.2053L 29.3823 38.2053ZM 31.4901 35.6689C 30.4111 34.4339 29.8716 33.0335 29.8788 31.2439L 26.8789 31.2718C 26.9243 33.5933 27.8311 35.9649 29.2052 37.613L 31.4901 35.6689ZM 28.9918 32.6268C 35.5745 29.6794 40.2103 23.6759 40.2103 16.5938L 37.2103 16.5938C 37.2103 22.2722 33.4866 27.3273 27.7658 29.8888L 28.9918 32.6268ZM 40.2103 16.5938C 40.2103 6.381 30.6511 -1.5 19.3535 -1.5L 19.3535 1.5C 29.4453 1.5 37.2103 8.45549 37.2103 16.5938L 40.2103 16.5938ZM 19.3535 -1.5C 8.05902 -1.5 -1.5 6.38115 -1.5 16.5938L 1.5 16.5938C 1.5 8.45535 9.26519 1.5 19.3535 1.5L 19.3535 -1.5Z"/>
<path id="path3_fill" fill-rule="evenodd" d="M 61.5711 25.3168C 61.5711 39.3162 47.7927 50.6337 30.7868 50.6337C 28.965 50.6337 27.1746 50.504 25.4472 50.2446C 23.1778 53.7047 19.2463 56 14.8333 56C 14.2913 56 13.7784 55.9682 13.2994 55.9046C 15.2494 53.7047 16.4011 50.827 16.4325 47.6899C 6.65091 43.4884 0 35.0486 0 25.3168C 0 11.3175 13.7784 0 30.7868 0C 47.7927 0 61.5711 11.3175 61.5711 25.3168Z"/>
<path id="path4_stroke" d="M 25.4472 50.2446L 25.6699 48.7612L 24.7198 48.6186L 24.1929 49.422L 25.4472 50.2446ZM 13.2994 55.9046L 12.1769 54.9096L 10.306 57.0202L 13.1019 57.3915L 13.2994 55.9046ZM 16.4325 47.6899L 17.9324 47.705L 17.9424 46.706L 17.0245 46.3117L 16.4325 47.6899ZM 60.0711 25.3168C 60.0711 38.2263 47.2525 49.1337 30.7868 49.1337L 30.7868 52.1337C 48.3328 52.1337 63.0711 40.4061 63.0711 25.3168L 60.0711 25.3168ZM 30.7868 49.1337C 29.0192 49.1347 27.3403 49.0132 25.6699 48.7612L 25.2244 51.728C 27.0089 51.9948 28.9107 52.1327 30.7868 52.1337L 30.7868 49.1337ZM 24.1929 49.422C 22.1877 52.4792 18.7174 54.5 14.8333 54.5L 14.8333 57.5C 19.7751 57.5 24.1679 54.9302 26.7014 51.0673L 24.1929 49.422ZM 14.8333 54.5C 14.3378 54.5007 13.9237 54.4752 13.4969 54.4176L 13.1019 57.3915C 13.6332 57.4611 14.2449 57.4993 14.8333 57.5L 14.8333 54.5ZM 14.4219 56.8996C 16.5259 54.4925 17.8725 51.1182 17.9324 47.705L 14.9326 47.6749C 14.9296 50.5358 13.973 52.9169 12.1769 54.9096L 14.4219 56.8996ZM 17.0245 46.3117C 7.65488 42.2871 1.5 34.3111 1.5 25.3168L -1.5 25.3168C -1.5 35.7862 5.64693 44.6897 15.8405 49.0682L 17.0245 46.3117ZM 1.5 25.3168C 1.5 12.4074 14.3185 1.5 30.7868 1.5L 30.7868 -1.5C 13.2384 -1.5 -1.5 10.2275 -1.5 25.3168L 1.5 25.3168ZM 30.7868 1.5C 47.2525 1.5 60.0711 12.4074 60.0711 25.3168L 63.0711 25.3168C 63.0711 10.2275 48.3328 -1.5 30.7868 -1.5L 30.7868 1.5Z"/>
</defs>
</svg>
