<svg width="66" height="47" viewBox="0 0 66 47" version="1.1" xmlns="http://www.w3.org/2000/svg" xmlns:xlink="http://www.w3.org/1999/xlink" xmlns:figma="http://www.figma.com/figma/ns">
<title>Icon</title>
<desc>Created using Figma</desc>
<g id="Canvas" transform="translate(249 96)" figma:type="canvas">
<g id="Icon" style="mix-blend-mode:normal;" figma:type="frame">
<g id="Stroke 1" style="mix-blend-mode:normal;" figma:type="vector">
<use xlink:href="#path0_fill" transform="matrix(-1 0 0 1 -217.032 -80.3177)" fill="#FFFFFF" style="mix-blend-mode:normal;"/>
<use xlink:href="#path1_stroke" transform="matrix(-1 0 0 1 -217.032 -80.3177)" fill="#BDBDBD" style="mix-blend-mode:normal;"/>
</g>
<g id="Stroke 5" style="mix-blend-mode:normal;" figma:type="vector">
<use xlink:href="#path2_fill" transform="matrix(-1 0 0 1 -184 -95)" fill="#FFFFFF" style="mix-blend-mode:normal;"/>
<use xlink:href="#path3_stroke" transform="matrix(-1 0 0 1 -184 -95)" fill="#BDBDBD" style="mix-blend-mode:normal;"/>
</g>
</g>
</g>
<defs>
<path id="path0_fill" fill-rule="evenodd" d="M 0 13.2751C 0 20.6155 6.92968 26.5501 15.4828 26.5501C 16.4003 26.5501 17.3 26.4823 18.1691 26.3466C 19.3109 28.1595 21.2886 29.3642 23.5059 29.3642C 23.7811 29.3642 24.0385 29.3478 24.2781 29.3127C 23.2969 28.1595 22.7184 26.6507 22.7031 25.0062C 27.6244 22.8027 30.9682 18.3792 30.9682 13.2751C 30.9682 5.9346 24.0385 0 15.4828 0C 6.92968 0 0 5.9346 0 13.2751Z"/>
<path id="path1_stroke" d="M 18.1691 26.3466L 19.0152 25.8137L 18.6647 25.2571L 18.0148 25.3586L 18.1691 26.3466ZM 24.2781 29.3127L 24.423 30.3022L 26.2102 30.0404L 25.0397 28.6647L 24.2781 29.3127ZM 22.7031 25.0062L 22.2944 24.0936L 21.697 24.361L 21.7031 25.0155L 22.7031 25.0062ZM -1 13.2751C -1 21.3069 6.52763 27.5501 15.4828 27.5501L 15.4828 25.5501C 7.33174 25.5501 1 19.9241 1 13.2751L -1 13.2751ZM 15.4828 27.5501C 16.438 27.5494 17.4148 27.4757 18.3233 27.3347L 18.0148 25.3586C 17.1852 25.4889 16.3627 25.5508 15.4828 25.5501L 15.4828 27.5501ZM 17.3229 26.8795C 18.632 28.958 20.9164 30.3642 23.5059 30.3642L 23.5059 28.3642C 21.6608 28.3642 19.9897 27.361 19.0152 25.8137L 17.3229 26.8795ZM 23.5059 30.3642C 23.8129 30.3637 24.1428 30.3424 24.423 30.3022L 24.1332 28.3233C 23.9342 28.3533 23.7494 28.3647 23.5059 28.3642L 23.5059 30.3642ZM 25.0397 28.6647C 24.1569 27.6492 23.7008 26.4641 23.703 24.9969L 21.7031 25.0155C 21.7359 26.8373 22.4369 28.6698 23.5165 29.9608L 25.0397 28.6647ZM 23.1117 25.9189C 28.3204 23.5867 31.9682 18.8471 31.9682 13.2751L 29.9682 13.2751C 29.9682 17.9113 26.9285 22.0187 22.2944 24.0936L 23.1117 25.9189ZM 31.9682 13.2751C 31.9682 5.2431 24.4405 -1 15.4828 -1L 15.4828 1C 23.6366 1 29.9682 6.62609 29.9682 13.2751L 31.9682 13.2751ZM 15.4828 -1C 6.52763 -1 -1 5.2432 -1 13.2751L 1 13.2751C 1 6.626 7.33174 1 15.4828 1L 15.4828 -1Z"/>
<path id="path2_fill" fill-rule="evenodd" d="M 49.2569 20.2535C 49.2569 31.453 38.2341 40.5069 24.6294 40.5069C 23.172 40.5069 21.7397 40.4032 20.3577 40.1957C 18.5422 42.9638 15.397 44.8 11.8666 44.8C 11.4331 44.8 11.0227 44.7746 10.6395 44.7237C 12.1995 42.9638 13.1208 40.6616 13.146 38.1519C 5.32073 34.7907 0 28.0389 0 20.2535C 0 9.05396 11.0227 0 24.6294 0C 38.2341 0 49.2569 9.05396 49.2569 20.2535Z"/>
<path id="path3_stroke" d="M 20.3577 40.1957L 20.5062 39.2068L 19.8728 39.1117L 19.5215 39.6473L 20.3577 40.1957ZM 10.6395 44.7237L 9.89119 44.0603L 8.64392 45.4674L 10.5079 45.7149L 10.6395 44.7237ZM 13.146 38.1519L 14.146 38.162L 14.1526 37.496L 13.5407 37.2331L 13.146 38.1519ZM 48.2569 20.2535C 48.2569 30.7264 37.874 39.5069 24.6294 39.5069L 24.6294 41.5069C 38.5942 41.5069 50.2569 32.1796 50.2569 20.2535L 48.2569 20.2535ZM 24.6294 39.5069C 23.2081 39.5076 21.8501 39.4093 20.5062 39.2068L 20.2092 41.1846C 21.6292 41.3971 23.1358 41.5063 24.6294 41.5069L 24.6294 39.5069ZM 19.5215 39.6473C 17.8822 42.1468 15.0444 43.8 11.8666 43.8L 11.8666 45.8C 15.7496 45.8 19.2023 43.7807 21.1939 40.7441L 19.5215 39.6473ZM 11.8666 43.8C 11.464 43.8005 11.1196 43.7793 10.7712 43.7324L 10.5079 45.7149C 10.9259 45.7699 11.4021 45.7995 11.8666 45.8L 11.8666 43.8ZM 11.3878 45.387C 13.0505 43.489 14.1018 40.8557 14.146 38.162L 12.1461 38.1419C 12.1399 40.4675 11.3486 42.4385 9.89119 44.0603L 11.3878 45.387ZM 13.5407 37.2331C 5.99004 33.9899 1 27.5472 1 20.2535L -1 20.2535C -1 28.5306 4.65141 35.5916 12.7513 39.0708L 13.5407 37.2331ZM 1 20.2535C 1 9.78062 11.3828 1 24.6294 1L 24.6294 -1C 10.6627 -1 -1 8.32731 -1 20.2535L 1 20.2535ZM 24.6294 1C 37.874 1 48.2569 9.78057 48.2569 20.2535L 50.2569 20.2535C 50.2569 8.32736 38.5942 -1 24.6294 -1L 24.6294 1Z"/>
</defs>
</svg>
