<svg width="128" height="128" viewBox="0 0 128 128" version="1.1" xmlns="http://www.w3.org/2000/svg" xmlns:xlink="http://www.w3.org/1999/xlink" xmlns:figma="http://www.figma.com/figma/ns">
<title>planes-2</title>
<desc>Created using Figma</desc>
<g id="Canvas" transform="translate(-150 -6)" figma:type="canvas">
<g id="planes-2" style="mix-blend-mode:normal;" figma:type="frame">
<g id="Base" style="mix-blend-mode:normal;" figma:type="rounded-rectangle">
<use xlink:href="#path0_fill" transform="translate(150 6)" fill="#FFFFFF" style="mix-blend-mode:normal;"/>
</g>
<g id="Group" style="mix-blend-mode:normal;" figma:type="frame">
<g id="Rectangle" style="mix-blend-mode:normal;" figma:type="rounded-rectangle">
<mask id="mask0_outline_ins">
<use xlink:href="#path1_fill" fill="white" transform="translate(150 45)"/>
</mask>
<g mask="url(#mask0_outline_ins)">
<use xlink:href="#path2_stroke_2x" transform="translate(150 45)" fill="#828282" style="mix-blend-mode:normal;"/>
</g>
</g>
<g id="Union" style="mix-blend-mode:normal;" figma:type="vector">
<use xlink:href="#path3_fill" transform="matrix(0.707107 -0.707107 0.707107 0.707107 161.957 70.4416)" fill="#828282" style="mix-blend-mode:normal;"/>
</g>
</g>
</g>
</g>
<defs>
<path id="path0_fill" d="M 0 0L 128 0L 128 128L 0 128L 0 0Z"/>
<path id="path1_fill" d="M 0 4C 0 1.79086 1.79086 0 4 0L 46 0C 48.2091 0 50 1.79086 50 4L 50 46C 50 48.2091 48.2091 50 46 50L 4 50C 1.79086 50 0 48.2091 0 46L 0 4Z"/>
<path id="path2_stroke_2x" d="M 4 3L 46 3L 46 -3L 4 -3L 4 3ZM 47 4L 47 46L 53 46L 53 4L 47 4ZM 46 47L 4 47L 4 53L 46 53L 46 47ZM 3 46L 3 4L -3 4L -3 46L 3 46ZM 4 -3C 0.134007 -3 -3 0.134007 -3 4L 3 4C 3 3.44772 3.44772 3 4 3L 4 -3ZM 46 3C 46.5523 3 47 3.44772 47 4L 53 4C 53 0.134007 49.866 -3 46 -3L 46 3ZM 47 46C 47 46.5523 46.5523 47 46 47L 46 53C 49.866 53 53 49.866 53 46L 47 46ZM 4 47C 3.44772 47 3 46.5523 3 46L -3 46C -3 49.866 0.134007 53 4 53L 4 47Z"/>
<path id="path3_fill" d="M 3.07438 1.53719C 3.07438 0.688223 2.38616 0 1.53719 0L 1.53719 0C 0.688223 0 0 0.688223 0 1.53719L 0 9.22314L 0 12.2975L 3.07438 12.2975L 23.0579 12.2975C 23.9068 12.2975 24.595 11.6093 24.595 10.7603L 24.595 10.7603C 24.595 9.91136 23.9068 9.22314 23.0579 9.22314L 3.07438 9.22314L 3.07438 1.53719Z"/>
</defs>
</svg>
