<svg width="46" height="66" viewBox="0 0 46 66" version="1.1" xmlns="http://www.w3.org/2000/svg" xmlns:xlink="http://www.w3.org/1999/xlink" xmlns:figma="http://www.figma.com/figma/ns">
<title>Icono</title>
<desc>Created using Figma</desc>
<g id="Canvas" transform="translate(95 249)" figma:type="canvas">
<rect x="-95" y="-249" width="46" height="66" fill="#E5E5E5"/>
<mask id="mask0_alpha" mask-type="alpha">
<path d="M -721 -513L 719 -513L 719 511L -721 511L -721 -513Z" fill="#FFFFFF"/>
</mask>
<g id="iconography" style="mix-blend-mode:normal;" mask="url(#mask0_alpha)" figma:type="frame">
<path d="M -721 -513L 719 -513L 719 511L -721 511L -721 -513Z" fill="#FFFFFF"/>
<g id="Group" style="mix-blend-mode:normal;" figma:type="frame">
<g id="Icono" style="mix-blend-mode:normal;" figma:type="frame">
<g id="Stroke" style="mix-blend-mode:normal;" figma:type="vector">
<use xlink:href="#path0_stroke" transform="translate(-93.6363 -248)" fill="#E0E0E0" style="mix-blend-mode:normal;"/>
</g>
<g id="Stroke" style="mix-blend-mode:normal;" figma:type="vector">
<use xlink:href="#path1_fill" transform="translate(-81.3699 -235.606)" fill="#FFFFFF" style="mix-blend-mode:normal;"/>
<use xlink:href="#path2_stroke" transform="translate(-81.3699 -235.606)" fill="#BDBDBD" style="mix-blend-mode:normal;"/>
</g>
</g>
</g>
</g>
</g>
<defs>
<path id="path0_stroke" d="M 38.7549 33.9899L 39.5731 34.5649L 39.5734 34.5644L 38.7549 33.9899ZM 27.64 51.9136L 28.5364 52.3569L 28.5365 52.3568L 27.64 51.9136ZM 21.8095 63.7025L 22.7058 64.146L 22.7059 64.1459L 21.8095 63.7025ZM 20.8559 63.7025L 19.9595 64.1457L 19.9596 64.146L 20.8559 63.7025ZM 14.6371 51.1247L 15.5335 50.6815L 15.5335 50.6814L 14.6371 51.1247ZM 4.01715 34.1365L 3.20356 34.7179L 3.20366 34.7181L 4.01715 34.1365ZM 23.8959 0.151498L 24.0131 -0.841616L 24.0131 -0.841617L 23.8959 0.151498ZM 41.4696 18.6468C 42.2458 24.2355 40.8456 29.2955 37.9364 33.4155L 39.5734 34.5644C 42.6547 30.1482 44.2413 24.3699 43.4516 18.3788L 41.4696 18.6468ZM 37.9367 33.4149C 33.8822 39.1846 29.9008 45.0889 26.7436 51.4705L 28.5365 52.3568C 31.6301 46.0937 35.5293 40.319 39.5731 34.5649L 37.9367 33.4149ZM 26.7437 51.4703L 20.9131 63.2592L 22.7059 64.1459L 28.5364 52.3569L 26.7437 51.4703ZM 20.9132 63.259C 21.0841 62.9137 21.5812 62.9137 21.7521 63.259L 19.9596 64.146C 20.523 65.2847 22.1423 65.2847 22.7058 64.146L 20.9132 63.259ZM 21.7523 63.2593L 15.5335 50.6815L 13.7407 51.5679L 19.9595 64.1457L 21.7523 63.2593ZM 15.5335 50.6814C 12.5314 44.6157 8.72897 39.0078 4.83063 33.5549L 3.20366 34.7181C 7.08788 40.1509 10.8035 45.6228 13.7407 51.5679L 15.5335 50.6814ZM 4.83073 33.555C 2.37821 30.1415 0.986396 26.0913 1 21.5565L -1 21.5565C -0.986396 26.4201 0.599983 31.0569 3.20356 34.7179L 4.83073 33.555ZM 1 21.5565C 1 9.38414 11.472 -0.307089 23.7788 1.14461L 24.0131 -0.841617C 10.4804 -2.43792 -1 8.22391 -1 21.5565L 1 21.5565ZM 23.7788 1.14461C 32.8231 2.21152 40.2331 9.51722 41.4696 18.647L 43.4515 18.3786C 42.0938 8.35382 33.9729 0.333283 24.0131 -0.841616L 23.7788 1.14461Z"/>
<path id="path1_fill" fill-rule="evenodd" d="M 0 9.16125C 0 4.10208 4.05981 0 9.06685 0C 14.0739 0 18.1337 4.10208 18.1337 9.16125C 18.1337 14.2204 14.0739 18.3225 9.06685 18.3225C 4.05981 18.3225 0 14.2204 0 9.16125L 0 9.16125Z"/>
<path id="path2_stroke" d="M 1 9.16125C 1 4.64458 4.62184 1 9.06685 1L 9.06685 -1C 3.49779 -1 -1 3.55959 -1 9.16125L 1 9.16125ZM 9.06685 1C 13.5119 1 17.1337 4.64458 17.1337 9.16125L 19.1337 9.16125C 19.1337 3.55959 14.6359 -1 9.06685 -1L 9.06685 1ZM 17.1337 9.16125C 17.1337 13.6779 13.5119 17.3225 9.06685 17.3225L 9.06685 19.3225C 14.6359 19.3225 19.1337 14.7629 19.1337 9.16125L 17.1337 9.16125ZM 9.06685 17.3225C 4.62184 17.3225 1 13.6779 1 9.16125L -1 9.16125C -1 14.7629 3.49779 19.3225 9.06685 19.3225L 9.06685 17.3225Z"/>
</defs>
</svg>
