<svg width="65" height="64" viewBox="0 0 65 64" version="1.1" xmlns="http://www.w3.org/2000/svg" xmlns:xlink="http://www.w3.org/1999/xlink" xmlns:figma="http://www.figma.com/figma/ns">
<title>Icon</title>
<desc>Created using Figma</desc>
<g id="Canvas" transform="translate(-38 -38)" figma:type="canvas">
<g id="Icon" style="mix-blend-mode:normal;" figma:type="frame">
<g id="Base" style="mix-blend-mode:normal;" figma:type="ellipse">
<mask id="mask0_outline_ins">
<use xlink:href="#path0_fill" fill="white" transform="translate(38.8315 38)"/>
</mask>
<g mask="url(#mask0_outline_ins)">
<use xlink:href="#path1_stroke_2x" transform="translate(38.8315 38)" fill="#E0E0E0" style="mix-blend-mode:normal;"/>
</g>
</g>
<g id="Icon" style="mix-blend-mode:normal;" figma:type="vector">
<use xlink:href="#path2_fill" transform="translate(64.747 57.8957)" fill="#BDBDBD" style="mix-blend-mode:normal;"/>
</g>
</g>
</g>
<defs>
<path id="path0_fill" d="M 64 32C 64 49.6731 49.6731 64 32 64C 14.3269 64 0 49.6731 0 32C 0 14.3269 14.3269 0 32 0C 49.6731 0 64 14.3269 64 32Z"/>
<path id="path1_stroke_2x" d="M 62 32C 62 48.5685 48.5685 62 32 62L 32 66C 50.7777 66 66 50.7777 66 32L 62 32ZM 32 62C 15.4315 62 2 48.5685 2 32L -2 32C -2 50.7777 13.2223 66 32 66L 32 62ZM 2 32C 2 15.4315 15.4315 2 32 2L 32 -2C 13.2223 -2 -2 13.2223 -2 32L 2 32ZM 32 2C 48.5685 2 62 15.4315 62 32L 66 32C 66 13.2223 50.7777 -2 32 -2L 32 2Z"/>
<path id="path2_fill" d="M 0 2.40417C 0.345043 2.08139 0.723478 1.77531 1.1353 1.48591C 1.55826 1.19652 2.01461 0.940521 2.50435 0.717913C 3.00522 0.495304 3.53948 0.322783 4.10713 0.200347C 4.68591 0.0667817 5.30922 0 5.97704 0C 6.85635 0 7.66887 0.128001 8.41461 0.384C 9.17148 0.639999 9.82261 1.00174 10.368 1.46922C 10.9134 1.9367 11.3419 2.50435 11.6536 3.17217C 11.9652 3.84 12.121 4.5913 12.121 5.42609C 12.121 6.272 11.993 7.00104 11.737 7.61322C 11.4922 8.22539 11.175 8.76522 10.7854 9.23269C 10.407 9.68904 9.98957 10.0897 9.53322 10.4348C 9.07687 10.7687 8.64835 11.0859 8.24765 11.3864C 7.85809 11.687 7.51861 11.9875 7.22922 12.288C 6.95096 12.5885 6.78957 12.9224 6.74504 13.2897L 6.44452 15.8442L 4.40765 15.8442L 4.2073 13.0727L 4.2073 12.889C 4.2073 12.4216 4.32974 12.0097 4.57461 11.6536C 4.83061 11.2863 5.14783 10.9468 5.52626 10.6351C 5.91583 10.3123 6.32765 9.99513 6.76174 9.68348C 7.20696 9.3607 7.61878 9.01009 7.99722 8.63165C 8.38678 8.24209 8.704 7.80244 8.94887 7.3127C 9.20487 6.82296 9.33287 6.24417 9.33287 5.57635C 9.33287 5.09774 9.23826 4.66365 9.04904 4.27409C 8.85983 3.88452 8.60383 3.55617 8.28104 3.28904C 7.95826 3.01078 7.57426 2.7993 7.12904 2.65461C 6.69496 2.50991 6.22748 2.43757 5.72661 2.43757C 5.04765 2.43757 4.4633 2.52104 3.97357 2.688C 3.49496 2.85496 3.0887 3.03861 2.75478 3.23896C 2.42087 3.4393 2.14817 3.62296 1.9367 3.78991C 1.73635 3.95687 1.56939 4.04035 1.43583 4.04035C 1.15757 4.04035 0.940522 3.91235 0.784696 3.65635L 0 2.40417ZM 3.27235 22.3555C 3.27235 22.0661 3.32243 21.7934 3.42261 21.5374C 3.53391 21.2814 3.67861 21.0588 3.8567 20.8696C 4.04591 20.6803 4.26852 20.5301 4.52452 20.4188C 4.78052 20.3075 5.05322 20.2518 5.34261 20.2518C 5.632 20.2518 5.9047 20.3075 6.1607 20.4188C 6.4167 20.5301 6.6393 20.6803 6.82852 20.8696C 7.01774 21.0588 7.16243 21.2814 7.26261 21.5374C 7.37391 21.7934 7.42957 22.0661 7.42957 22.3555C 7.42957 22.656 7.37391 22.9343 7.26261 23.1903C 7.16243 23.4351 7.01774 23.6522 6.82852 23.8414C 6.6393 24.0306 6.4167 24.1753 6.1607 24.2755C 5.9047 24.3868 5.632 24.4424 5.34261 24.4424C 5.05322 24.4424 4.78052 24.3868 4.52452 24.2755C 4.26852 24.1753 4.04591 24.0306 3.8567 23.8414C 3.67861 23.6522 3.53391 23.4351 3.42261 23.1903C 3.32243 22.9343 3.27235 22.656 3.27235 22.3555Z"/>
</defs>
</svg>
