<svg width="65" height="64" viewBox="0 0 65 64" version="1.1" xmlns="http://www.w3.org/2000/svg" xmlns:xlink="http://www.w3.org/1999/xlink" xmlns:figma="http://www.figma.com/figma/ns">
<title>Icon</title>
<desc>Created using Figma</desc>
<g id="Canvas" transform="translate(105 -38)" figma:type="canvas">
<g id="Icon" style="mix-blend-mode:normal;" figma:type="frame">
<g id="Ellipse" style="mix-blend-mode:normal;" figma:type="ellipse">
<use xlink:href="#path0_fill" transform="translate(-104.303 38)" fill="#FFFFFF" style="mix-blend-mode:normal;"/>
<mask id="mask0_outline_ins">
<use xlink:href="#path0_fill" fill="white" transform="translate(-104.303 38)"/>
</mask>
<g mask="url(#mask0_outline_ins)">
<use xlink:href="#path1_stroke_2x" transform="translate(-104.303 38)" fill="#E0E0E0" style="mix-blend-mode:normal;"/>
</g>
</g>
<g id="Vector" style="mix-blend-mode:normal;" figma:type="vector">
<use xlink:href="#path2_stroke" transform="translate(-72.303 52.2222)" fill="#BDBDBD" style="mix-blend-mode:normal;"/>
</g>
</g>
</g>
<defs>
<path id="path0_fill" d="M 64 32C 64 49.6731 49.6731 64 32 64C 14.3269 64 0 49.6731 0 32C 0 14.3269 14.3269 0 32 0C 49.6731 0 64 14.3269 64 32Z"/>
<path id="path1_stroke_2x" d="M 62 32C 62 48.5685 48.5685 62 32 62L 32 66C 50.7777 66 66 50.7777 66 32L 62 32ZM 32 62C 15.4315 62 2 48.5685 2 32L -2 32C -2 50.7777 13.2223 66 32 66L 32 62ZM 2 32C 2 15.4315 15.4315 2 32 2L 32 -2C 13.2223 -2 -2 13.2223 -2 32L 2 32ZM 32 2C 48.5685 2 62 15.4315 62 32L 66 32C 66 13.2223 50.7777 -2 32 -2L 32 2Z"/>
<path id="path2_stroke" d="M 0 17.7778L -1 17.7778L -1 18.7778L 0 18.7778L 0 17.7778ZM -1 0L -1 17.7778L 1 17.7778L 1 0L -1 0ZM 0 18.7778L 17.7778 18.7778L 17.7778 16.7778L 0 16.7778L 0 18.7778Z"/>
</defs>
</svg>
