<svg width="26" height="25" viewBox="0 0 26 25" version="1.1" xmlns="http://www.w3.org/2000/svg" xmlns:xlink="http://www.w3.org/1999/xlink" xmlns:figma="http://www.figma.com/figma/ns">
<title>marcar</title>
<desc>Created using Figma</desc>
<g id="Canvas" transform="translate(-885 -412)" figma:type="canvas">
<g id="marcar" style="mix-blend-mode:normal;" figma:type="frame">
<g id="Vector" style="mix-blend-mode:normal;" figma:type="vector">
<use xlink:href="#path0_fill" transform="matrix(0.965926 0.258819 -0.258819 0.965926 890.719 412.389)" fill="#FFFFFF" style="mix-blend-mode:normal;"/>
</g>
</g>
</g>
<defs>
<path id="path0_fill" d="M 5.66035 7.38066C 5.66035 7.38066 7.62186 11.8518 12.6057 14.3179L 14.1669 12.7941C 14.3871 12.5936 14.6272 12.4332 14.9075 12.353C 15.1677 12.2728 15.4879 12.2327 15.8282 12.353C 16.0483 12.4332 16.2285 12.5535 16.4086 12.7139L 19.5711 15.8617C 19.5711 15.8617 20.6119 16.9444 19.451 18.1474C 18.2901 19.3504 16.6688 20.6136 13.3062 19.6712C 9.94364 18.7289 6.48098 15.7214 6.48098 15.7214C 6.48098 15.7214 1.8374 11.551 0.576434 8.02226C -0.684536 4.49349 0.516388 2.18776 0.516388 2.18776C 0.516388 2.18776 1.61723 0.0624731 3.09837 0.00232357C 3.09837 0.00232357 3.75888 -0.0778758 4.47944 0.704068C 5.0799 1.36571 6.66112 2.90955 7.1615 3.43085C 7.40169 3.65139 7.56181 3.95214 7.66189 4.25289C 7.78198 4.69398 7.6819 5.45588 7.08144 6.03732C 5.92055 7.12001 5.66035 7.38066 5.66035 7.38066Z"/>
</defs>
</svg>
